<svg xmlns="http://www.w3.org/2000/svg" width="672" height="432" viewBox="0 0 672.0 432.0" font-family="Maple Mono, Geist Mono, JetBrains Mono, Cascadia Mono, Consolas, monospace" font-size="13px"><style>text{white-space:pre;dominant-baseline:no-change;lengthAdjust:spacingAndGlyphs}</style><g id="frame"><rect width="672.0" height="432.0" fill="#120F0C"/><rect x="0.0" y="414.0" width="8.9" height="18.5" fill="#191512"/><rect x="8.4" y="414.0" width="8.9" height="18.5" fill="#191512"/><rect x="16.8" y="414.0" width="8.9" height="18.5" fill="#191512"/><rect x="25.2" y="414.0" width="8.9" height="18.5" fill="#191512"/><rect x="33.6" y="414.0" width="8.9" height="18.5" fill="#191512"/><rect x="42.0" y="414.0" width="8.9" height="18.5" fill="#191512"/><rect x="50.4" y="414.0" width="8.9" height="18.5" fill="#191512"/><rect x="58.8" y="414.0" width="8.9" height="18.5" fill="#191512"/><rect x="67.2" y="414.0" width="8.9" height="18.5" fill="#191512"/><rect x="75.6" y="414.0" width="8.9" height="18.5" fill="#191512"/><rect x="84.0" y="414.0" width="8.9" height="18.5" fill="#191512"/><rect x="92.4" y="414.0" width="8.9" height="18.5" fill="#191512"/><rect x="100.8" y="414.0" width="8.9" height="18.5" fill="#191512"/><rect x="109.2" y="414.0" width="8.9" height="18.5" fill="#191512"/><rect x="117.6" y="414.0" width="8.9" height="18.5" fill="#191512"/><rect x="126.0" y="414.0" width="8.9" height="18.5" fill="#191512"/><rect x="134.4" y="414.0" width="8.9" height="18.5" fill="#191512"/><rect x="142.8" y="414.0" width="8.9" height="18.5" fill="#191512"/><rect x="151.2" y="414.0" width="8.9" height="18.5" fill="#191512"/><rect x="159.6" y="414.0" width="8.9" height="18.5" fill="#191512"/><rect x="168.0" y="414.0" width="8.9" height="18.5" fill="#191512"/><rect x="176.4" y="414.0" width="8.9" height="18.5" fill="#191512"/><rect x="184.8" y="414.0" width="8.9" height="18.5" fill="#191512"/><rect x="193.2" y="414.0" width="8.9" height="18.5" fill="#191512"/><rect x="201.6" y="414.0" width="8.9" height="18.5" fill="#191512"/><rect x="210.0" y="414.0" width="8.9" height="18.5" fill="#191512"/><rect x="218.4" y="414.0" width="8.9" height="18.5" fill="#191512"/><rect x="226.8" y="414.0" width="8.9" height="18.5" fill="#191512"/><rect x="235.2" y="414.0" width="8.9" height="18.5" fill="#191512"/><rect x="243.6" y="414.0" width="8.9" height="18.5" fill="#191512"/><rect x="252.0" y="414.0" width="8.9" height="18.5" fill="#191512"/><rect x="260.4" y="414.0" width="8.9" height="18.5" fill="#191512"/><rect x="268.8" y="414.0" width="8.9" height="18.5" fill="#191512"/><rect x="277.2" y="414.0" width="8.9" height="18.5" fill="#191512"/><rect x="285.6" y="414.0" width="8.9" height="18.5" fill="#191512"/><rect x="294.0" y="414.0" width="8.9" height="18.5" fill="#191512"/><rect x="302.4" y="414.0" width="8.9" height="18.5" fill="#191512"/><rect x="310.8" y="414.0" width="8.9" height="18.5" fill="#191512"/><rect x="319.2" y="414.0" width="8.9" height="18.5" fill="#191512"/><rect x="327.6" y="414.0" width="8.9" height="18.5" fill="#191512"/><rect x="336.0" y="414.0" width="8.9" height="18.5" fill="#191512"/><rect x="344.4" y="414.0" width="8.9" height="18.5" fill="#191512"/><rect x="352.8" y="414.0" width="8.9" height="18.5" fill="#191512"/><rect x="361.2" y="414.0" width="8.9" height="18.5" fill="#191512"/><rect x="369.6" y="414.0" width="8.9" height="18.5" fill="#191512"/><rect x="378.0" y="414.0" width="8.9" height="18.5" fill="#191512"/><rect x="386.4" y="414.0" width="8.9" height="18.5" fill="#191512"/><rect x="394.8" y="414.0" width="8.9" height="18.5" fill="#191512"/><rect x="403.2" y="414.0" width="8.9" height="18.5" fill="#191512"/><rect x="411.6" y="414.0" width="8.9" height="18.5" fill="#191512"/><rect x="420.0" y="414.0" width="8.9" height="18.5" fill="#191512"/><rect x="428.4" y="414.0" width="8.9" height="18.5" fill="#191512"/><rect x="436.8" y="414.0" width="8.9" height="18.5" fill="#191512"/><rect x="445.2" y="414.0" width="8.9" height="18.5" fill="#191512"/><rect x="453.6" y="414.0" width="8.9" height="18.5" fill="#191512"/><rect x="462.0" y="414.0" width="8.9" height="18.5" fill="#191512"/><rect x="470.4" y="414.0" width="8.9" height="18.5" fill="#191512"/><rect x="478.8" y="414.0" width="8.9" height="18.5" fill="#191512"/><rect x="487.2" y="414.0" width="8.9" height="18.5" fill="#191512"/><rect x="495.6" y="414.0" width="8.9" height="18.5" fill="#191512"/><rect x="504.0" y="414.0" width="8.9" height="18.5" fill="#191512"/><rect x="512.4" y="414.0" width="8.9" height="18.5" fill="#191512"/><rect x="520.8" y="414.0" width="8.9" height="18.5" fill="#191512"/><rect x="529.2" y="414.0" width="8.9" height="18.5" fill="#191512"/><rect x="537.6" y="414.0" width="8.9" height="18.5" fill="#191512"/><rect x="546.0" y="414.0" width="8.9" height="18.5" fill="#191512"/><rect x="554.4" y="414.0" width="8.9" height="18.5" fill="#191512"/><rect x="562.8" y="414.0" width="8.9" height="18.5" fill="#191512"/><rect x="571.2" y="414.0" width="8.9" height="18.5" fill="#191512"/><rect x="579.6" y="414.0" width="8.9" height="18.5" fill="#191512"/><rect x="588.0" y="414.0" width="8.9" height="18.5" fill="#191512"/><rect x="596.4" y="414.0" width="8.9" height="18.5" fill="#191512"/><rect x="604.8" y="414.0" width="8.9" height="18.5" fill="#191512"/><rect x="613.2" y="414.0" width="8.9" height="18.5" fill="#191512"/><rect x="621.6" y="414.0" width="8.9" height="18.5" fill="#191512"/><rect x="630.0" y="414.0" width="8.9" height="18.5" fill="#191512"/><rect x="638.4" y="414.0" width="8.9" height="18.5" fill="#191512"/><rect x="646.8" y="414.0" width="8.9" height="18.5" fill="#191512"/><rect x="655.2" y="414.0" width="8.9" height="18.5" fill="#191512"/><rect x="663.6" y="414.0" width="8.9" height="18.5" fill="#191512"/><text x="0.0" y="13.0" fill="#514C49" textLength="25.2">┌─ </text><text x="25.2" y="13.0" fill="#B2ADA9" textLength="67.2">activity</text><text x="92.4" y="13.0" fill="#514C49" textLength="579.6"> · 53 weeks ────────────────────────────────────────────────────────┐</text><text x="0.0" y="31.0" fill="#514C49" textLength="8.4">│</text><text x="92.4" y="31.0" fill="#514C49" textLength="478.8">        sep  oct nov dec  jan feb mar  apr may jun  jul  </text><text x="663.6" y="31.0" fill="#514C49" textLength="8.4">│</text><text x="0.0" y="49.0" fill="#514C49" textLength="8.4">│</text><text x="92.4" y="49.0" fill="#514C49" textLength="33.6">mon </text><text x="126.0" y="49.0" fill="#825631" textLength="16.8">⣀⣀</text><text x="142.8" y="49.0" fill="#513319" textLength="16.8">⡀⡀</text><text x="159.6" y="49.0" fill="#825631" textLength="8.4">⣀</text><text x="168.0" y="49.0" fill="#513319" textLength="8.4">⡀</text><text x="176.4" y="49.0" fill="#825631" textLength="16.8">⣀⣀</text><text x="193.2" y="49.0" fill="#B67D4B" textLength="8.4">⣤</text><text x="201.6" y="49.0" fill="#825631" textLength="8.4">⣀</text><text x="210.0" y="49.0" fill="#513319" textLength="42.0">⡀⡀⡀⡀⡀</text><text x="252.0" y="49.0" fill="#EEA567" textLength="8.4">⣶</text><text x="260.4" y="49.0" fill="#B67D4B" textLength="8.4">⣤</text><text x="268.8" y="49.0" fill="#513319" textLength="33.6">⡀⡀⡀⡀</text><text x="302.4" y="49.0" fill="#191512" textLength="16.8">⠀⠀</text><text x="319.2" y="49.0" fill="#EEA567" textLength="8.4">⣶</text><text x="327.6" y="49.0" fill="#513319" textLength="8.4">⡀</text><text x="336.0" y="49.0" fill="#B67D4B" textLength="16.8">⣤⣤</text><text x="352.8" y="49.0" fill="#513319" textLength="16.8">⡀⡀</text><text x="369.6" y="49.0" fill="#EEA567" textLength="8.4">⣶</text><text x="378.0" y="49.0" fill="#825631" textLength="8.4">⣀</text><text x="386.4" y="49.0" fill="#513319" textLength="8.4">⡀</text><text x="394.8" y="49.0" fill="#825631" textLength="8.4">⣀</text><text x="403.2" y="49.0" fill="#B67D4B" textLength="8.4">⣤</text><text x="411.6" y="49.0" fill="#EEA567" textLength="8.4">⣶</text><text x="420.0" y="49.0" fill="#B67D4B" textLength="8.4">⣤</text><text x="428.4" y="49.0" fill="#191512" textLength="8.4">⠀</text><text x="436.8" y="49.0" fill="#B67D4B" textLength="8.4">⣤</text><text x="445.2" y="49.0" fill="#825631" textLength="8.4">⣀</text><text x="453.6" y="49.0" fill="#EEA567" textLength="8.4">⣶</text><text x="462.0" y="49.0" fill="#513319" textLength="8.4">⡀</text><text x="470.4" y="49.0" fill="#EEA567" textLength="8.4">⣶</text><text x="478.8" y="49.0" fill="#513319" textLength="8.4">⡀</text><text x="487.2" y="49.0" fill="#191512" textLength="8.4">⠀</text><text x="495.6" y="49.0" fill="#EEA567" textLength="8.4">⣶</text><text x="504.0" y="49.0" fill="#513319" textLength="33.6">⡀⡀⡀⡀</text><text x="537.6" y="49.0" fill="#EEA567" textLength="8.4">⣶</text><text x="546.0" y="49.0" fill="#191512" textLength="8.4">⠀</text><text x="554.4" y="49.0" fill="#EEA567" textLength="8.4">⣶</text><text x="562.8" y="49.0" fill="#B67D4B" textLength="8.4">⣤</text><text x="663.6" y="49.0" fill="#514C49" textLength="8.4">│</text><text x="0.0" y="67.0" fill="#514C49" textLength="8.4">│</text><text x="126.0" y="67.0" fill="#825631" textLength="8.4">⣀</text><text x="134.4" y="67.0" fill="#513319" textLength="33.6">⡀⡀⡀⡀</text><text x="168.0" y="67.0" fill="#825631" textLength="8.4">⣀</text><text x="176.4" y="67.0" fill="#513319" textLength="8.4">⡀</text><text x="184.8" y="67.0" fill="#825631" textLength="8.4">⣀</text><text x="193.2" y="67.0" fill="#B67D4B" textLength="8.4">⣤</text><text x="201.6" y="67.0" fill="#513319" textLength="58.8">⡀⡀⡀⡀⡀⡀⡀</text><text x="260.4" y="67.0" fill="#EEA567" textLength="8.4">⣶</text><text x="268.8" y="67.0" fill="#513319" textLength="8.4">⡀</text><text x="277.2" y="67.0" fill="#825631" textLength="8.4">⣀</text><text x="285.6" y="67.0" fill="#B67D4B" textLength="8.4">⣤</text><text x="294.0" y="67.0" fill="#513319" textLength="8.4">⡀</text><text x="302.4" y="67.0" fill="#191512" textLength="16.8">⠀⠀</text><text x="319.2" y="67.0" fill="#B67D4B" textLength="8.4">⣤</text><text x="327.6" y="67.0" fill="#191512" textLength="8.4">⠀</text><text x="336.0" y="67.0" fill="#513319" textLength="16.8">⡀⡀</text><text x="352.8" y="67.0" fill="#EEA567" textLength="8.4">⣶</text><text x="361.2" y="67.0" fill="#191512" textLength="16.8">⠀⠀</text><text x="378.0" y="67.0" fill="#EEA567" textLength="8.4">⣶</text><text x="386.4" y="67.0" fill="#513319" textLength="8.4">⡀</text><text x="394.8" y="67.0" fill="#B67D4B" textLength="8.4">⣤</text><text x="403.2" y="67.0" fill="#825631" textLength="8.4">⣀</text><text x="411.6" y="67.0" fill="#EEA567" textLength="8.4">⣶</text><text x="420.0" y="67.0" fill="#B67D4B" textLength="8.4">⣤</text><text x="428.4" y="67.0" fill="#825631" textLength="8.4">⣀</text><text x="436.8" y="67.0" fill="#513319" textLength="8.4">⡀</text><text x="445.2" y="67.0" fill="#191512" textLength="8.4">⠀</text><text x="453.6" y="67.0" fill="#513319" textLength="8.4">⡀</text><text x="462.0" y="67.0" fill="#B67D4B" textLength="8.4">⣤</text><text x="470.4" y="67.0" fill="#825631" textLength="8.4">⣀</text><text x="478.8" y="67.0" fill="#513319" textLength="8.4">⡀</text><text x="487.2" y="67.0" fill="#825631" textLength="8.4">⣀</text><text x="495.6" y="67.0" fill="#B67D4B" textLength="16.8">⣤⣤</text><text x="512.4" y="67.0" fill="#191512" textLength="8.4">⠀</text><text x="520.8" y="67.0" fill="#513319" textLength="8.4">⡀</text><text x="529.2" y="67.0" fill="#EEA567" textLength="8.4">⣶</text><text x="537.6" y="67.0" fill="#513319" textLength="8.4">⡀</text><text x="546.0" y="67.0" fill="#191512" textLength="8.4">⠀</text><text x="554.4" y="67.0" fill="#EEA567" textLength="8.4">⣶</text><text x="562.8" y="67.0" fill="#513319" textLength="8.4">⡀</text><text x="663.6" y="67.0" fill="#514C49" textLength="8.4">│</text><text x="0.0" y="85.0" fill="#514C49" textLength="8.4">│</text><text x="126.0" y="85.0" fill="#513319" textLength="16.8">⡀⡀</text><text x="142.8" y="85.0" fill="#825631" textLength="8.4">⣀</text><text x="151.2" y="85.0" fill="#513319" textLength="8.4">⡀</text><text x="159.6" y="85.0" fill="#825631" textLength="8.4">⣀</text><text x="168.0" y="85.0" fill="#513319" textLength="42.0">⡀⡀⡀⡀⡀</text><text x="210.0" y="85.0" fill="#825631" textLength="8.4">⣀</text><text x="218.4" y="85.0" fill="#B67D4B" textLength="8.4">⣤</text><text x="226.8" y="85.0" fill="#513319" textLength="8.4">⡀</text><text x="235.2" y="85.0" fill="#825631" textLength="25.2">⣀⣀⣀</text><text x="260.4" y="85.0" fill="#B67D4B" textLength="8.4">⣤</text><text x="268.8" y="85.0" fill="#513319" textLength="8.4">⡀</text><text x="277.2" y="85.0" fill="#B67D4B" textLength="8.4">⣤</text><text x="285.6" y="85.0" fill="#513319" textLength="8.4">⡀</text><text x="294.0" y="85.0" fill="#191512" textLength="16.8">⠀⠀</text><text x="310.8" y="85.0" fill="#825631" textLength="16.8">⣀⣀</text><text x="327.6" y="85.0" fill="#B67D4B" textLength="16.8">⣤⣤</text><text x="344.4" y="85.0" fill="#191512" textLength="8.4">⠀</text><text x="352.8" y="85.0" fill="#825631" textLength="8.4">⣀</text><text x="361.2" y="85.0" fill="#513319" textLength="33.6">⡀⡀⡀⡀</text><text x="394.8" y="85.0" fill="#191512" textLength="8.4">⠀</text><text x="403.2" y="85.0" fill="#825631" textLength="8.4">⣀</text><text x="411.6" y="85.0" fill="#513319" textLength="8.4">⡀</text><text x="420.0" y="85.0" fill="#B67D4B" textLength="16.8">⣤⣤</text><text x="436.8" y="85.0" fill="#191512" textLength="8.4">⠀</text><text x="445.2" y="85.0" fill="#EEA567" textLength="8.4">⣶</text><text x="453.6" y="85.0" fill="#B67D4B" textLength="16.8">⣤⣤</text><text x="470.4" y="85.0" fill="#513319" textLength="16.8">⡀⡀</text><text x="487.2" y="85.0" fill="#825631" textLength="8.4">⣀</text><text x="495.6" y="85.0" fill="#EEA567" textLength="8.4">⣶</text><text x="504.0" y="85.0" fill="#191512" textLength="8.4">⠀</text><text x="512.4" y="85.0" fill="#825631" textLength="8.4">⣀</text><text x="520.8" y="85.0" fill="#191512" textLength="8.4">⠀</text><text x="529.2" y="85.0" fill="#825631" textLength="16.8">⣀⣀</text><text x="546.0" y="85.0" fill="#513319" textLength="8.4">⡀</text><text x="554.4" y="85.0" fill="#825631" textLength="8.4">⣀</text><text x="663.6" y="85.0" fill="#514C49" textLength="8.4">│</text><text x="0.0" y="103.0" fill="#514C49" textLength="8.4">│</text><text x="92.4" y="103.0" fill="#514C49" textLength="33.6">thu </text><text x="126.0" y="103.0" fill="#B67D4B" textLength="8.4">⣤</text><text x="134.4" y="103.0" fill="#513319" textLength="16.8">⡀⡀</text><text x="151.2" y="103.0" fill="#825631" textLength="8.4">⣀</text><text x="159.6" y="103.0" fill="#513319" textLength="16.8">⡀⡀</text><text x="176.4" y="103.0" fill="#191512" textLength="8.4">⠀</text><text x="184.8" y="103.0" fill="#825631" textLength="16.8">⣀⣀</text><text x="201.6" y="103.0" fill="#513319" textLength="8.4">⡀</text><text x="210.0" y="103.0" fill="#B67D4B" textLength="8.4">⣤</text><text x="218.4" y="103.0" fill="#825631" textLength="16.8">⣀⣀</text><text x="235.2" y="103.0" fill="#B67D4B" textLength="8.4">⣤</text><text x="243.6" y="103.0" fill="#825631" textLength="8.4">⣀</text><text x="252.0" y="103.0" fill="#513319" textLength="16.8">⡀⡀</text><text x="268.8" y="103.0" fill="#825631" textLength="8.4">⣀</text><text x="277.2" y="103.0" fill="#B67D4B" textLength="8.4">⣤</text><text x="285.6" y="103.0" fill="#513319" textLength="8.4">⡀</text><text x="294.0" y="103.0" fill="#191512" textLength="16.8">⠀⠀</text><text x="310.8" y="103.0" fill="#513319" textLength="16.8">⡀⡀</text><text x="327.6" y="103.0" fill="#EEA567" textLength="8.4">⣶</text><text x="336.0" y="103.0" fill="#B67D4B" textLength="8.4">⣤</text><text x="344.4" y="103.0" fill="#191512" textLength="8.4">⠀</text><text x="352.8" y="103.0" fill="#825631" textLength="16.8">⣀⣀</text><text x="369.6" y="103.0" fill="#191512" textLength="8.4">⠀</text><text x="378.0" y="103.0" fill="#EEA567" textLength="8.4">⣶</text><text x="386.4" y="103.0" fill="#513319" textLength="8.4">⡀</text><text x="394.8" y="103.0" fill="#825631" textLength="8.4">⣀</text><text x="403.2" y="103.0" fill="#191512" textLength="8.4">⠀</text><text x="411.6" y="103.0" fill="#825631" textLength="8.4">⣀</text><text x="420.0" y="103.0" fill="#B67D4B" textLength="8.4">⣤</text><text x="428.4" y="103.0" fill="#EEA567" textLength="8.4">⣶</text><text x="436.8" y="103.0" fill="#513319" textLength="8.4">⡀</text><text x="445.2" y="103.0" fill="#825631" textLength="8.4">⣀</text><text x="453.6" y="103.0" fill="#B67D4B" textLength="8.4">⣤</text><text x="462.0" y="103.0" fill="#513319" textLength="8.4">⡀</text><text x="470.4" y="103.0" fill="#EEA567" textLength="16.8">⣶⣶</text><text x="487.2" y="103.0" fill="#825631" textLength="16.8">⣀⣀</text><text x="504.0" y="103.0" fill="#EEA567" textLength="16.8">⣶⣶</text><text x="520.8" y="103.0" fill="#513319" textLength="8.4">⡀</text><text x="529.2" y="103.0" fill="#825631" textLength="8.4">⣀</text><text x="537.6" y="103.0" fill="#EEA567" textLength="8.4">⣶</text><text x="546.0" y="103.0" fill="#B67D4B" textLength="16.8">⣤⣤</text><text x="663.6" y="103.0" fill="#514C49" textLength="8.4">│</text><text x="0.0" y="121.0" fill="#514C49" textLength="8.4">│</text><text x="126.0" y="121.0" fill="#825631" textLength="8.4">⣀</text><text x="134.4" y="121.0" fill="#513319" textLength="42.0">⡀⡀⡀⡀⡀</text><text x="176.4" y="121.0" fill="#825631" textLength="8.4">⣀</text><text x="184.8" y="121.0" fill="#B67D4B" textLength="8.4">⣤</text><text x="193.2" y="121.0" fill="#513319" textLength="25.2">⡀⡀⡀</text><text x="218.4" y="121.0" fill="#825631" textLength="8.4">⣀</text><text x="226.8" y="121.0" fill="#191512" textLength="8.4">⠀</text><text x="235.2" y="121.0" fill="#B67D4B" textLength="16.8">⣤⣤</text><text x="252.0" y="121.0" fill="#EEA567" textLength="8.4">⣶</text><text x="260.4" y="121.0" fill="#B67D4B" textLength="8.4">⣤</text><text x="268.8" y="121.0" fill="#513319" textLength="25.2">⡀⡀⡀</text><text x="294.0" y="121.0" fill="#191512" textLength="16.8">⠀⠀</text><text x="310.8" y="121.0" fill="#825631" textLength="8.4">⣀</text><text x="319.2" y="121.0" fill="#513319" textLength="25.2">⡀⡀⡀</text><text x="344.4" y="121.0" fill="#EEA567" textLength="8.4">⣶</text><text x="352.8" y="121.0" fill="#B67D4B" textLength="8.4">⣤</text><text x="361.2" y="121.0" fill="#825631" textLength="8.4">⣀</text><text x="369.6" y="121.0" fill="#513319" textLength="8.4">⡀</text><text x="378.0" y="121.0" fill="#EEA567" textLength="8.4">⣶</text><text x="386.4" y="121.0" fill="#513319" textLength="8.4">⡀</text><text x="394.8" y="121.0" fill="#825631" textLength="16.8">⣀⣀</text><text x="411.6" y="121.0" fill="#191512" textLength="8.4">⠀</text><text x="420.0" y="121.0" fill="#B67D4B" textLength="8.4">⣤</text><text x="428.4" y="121.0" fill="#825631" textLength="16.8">⣀⣀</text><text x="445.2" y="121.0" fill="#B67D4B" textLength="8.4">⣤</text><text x="453.6" y="121.0" fill="#825631" textLength="8.4">⣀</text><text x="462.0" y="121.0" fill="#513319" textLength="16.8">⡀⡀</text><text x="478.8" y="121.0" fill="#EEA567" textLength="8.4">⣶</text><text x="487.2" y="121.0" fill="#B67D4B" textLength="8.4">⣤</text><text x="495.6" y="121.0" fill="#825631" textLength="8.4">⣀</text><text x="504.0" y="121.0" fill="#EEA567" textLength="16.8">⣶⣶</text><text x="520.8" y="121.0" fill="#191512" textLength="8.4">⠀</text><text x="529.2" y="121.0" fill="#513319" textLength="8.4">⡀</text><text x="537.6" y="121.0" fill="#EEA567" textLength="8.4">⣶</text><text x="546.0" y="121.0" fill="#513319" textLength="16.8">⡀⡀</text><text x="663.6" y="121.0" fill="#514C49" textLength="8.4">│</text><text x="0.0" y="139.0" fill="#514C49" textLength="8.4">│</text><text x="126.0" y="139.0" fill="#513319" textLength="117.6">⡀⡀⡀⡀⡀⡀⡀⡀⡀⡀⡀⡀⡀⡀</text><text x="243.6" y="139.0" fill="#825631" textLength="8.4">⣀</text><text x="252.0" y="139.0" fill="#513319" textLength="16.8">⡀⡀</text><text x="268.8" y="139.0" fill="#825631" textLength="8.4">⣀</text><text x="277.2" y="139.0" fill="#191512" textLength="8.4">⠀</text><text x="285.6" y="139.0" fill="#513319" textLength="8.4">⡀</text><text x="294.0" y="139.0" fill="#191512" textLength="16.8">⠀⠀</text><text x="310.8" y="139.0" fill="#513319" textLength="16.8">⡀⡀</text><text x="327.6" y="139.0" fill="#825631" textLength="8.4">⣀</text><text x="336.0" y="139.0" fill="#513319" textLength="33.6">⡀⡀⡀⡀</text><text x="369.6" y="139.0" fill="#825631" textLength="8.4">⣀</text><text x="378.0" y="139.0" fill="#513319" textLength="16.8">⡀⡀</text><text x="394.8" y="139.0" fill="#191512" textLength="8.4">⠀</text><text x="403.2" y="139.0" fill="#513319" textLength="8.4">⡀</text><text x="411.6" y="139.0" fill="#825631" textLength="8.4">⣀</text><text x="420.0" y="139.0" fill="#513319" textLength="8.4">⡀</text><text x="428.4" y="139.0" fill="#191512" textLength="8.4">⠀</text><text x="436.8" y="139.0" fill="#513319" textLength="8.4">⡀</text><text x="445.2" y="139.0" fill="#825631" textLength="8.4">⣀</text><text x="453.6" y="139.0" fill="#513319" textLength="25.2">⡀⡀⡀</text><text x="478.8" y="139.0" fill="#825631" textLength="8.4">⣀</text><text x="487.2" y="139.0" fill="#513319" textLength="16.8">⡀⡀</text><text x="504.0" y="139.0" fill="#B67D4B" textLength="8.4">⣤</text><text x="512.4" y="139.0" fill="#825631" textLength="8.4">⣀</text><text x="520.8" y="139.0" fill="#B67D4B" textLength="8.4">⣤</text><text x="529.2" y="139.0" fill="#513319" textLength="16.8">⡀⡀</text><text x="546.0" y="139.0" fill="#825631" textLength="16.8">⣀⣀</text><text x="663.6" y="139.0" fill="#514C49" textLength="8.4">│</text><text x="0.0" y="157.0" fill="#514C49" textLength="8.4">│</text><text x="126.0" y="157.0" fill="#513319" textLength="42.0">⡀⡀⡀⡀⡀</text><text x="168.0" y="157.0" fill="#825631" textLength="8.4">⣀</text><text x="176.4" y="157.0" fill="#513319" textLength="8.4">⡀</text><text x="184.8" y="157.0" fill="#825631" textLength="8.4">⣀</text><text x="193.2" y="157.0" fill="#513319" textLength="25.2">⡀⡀⡀</text><text x="218.4" y="157.0" fill="#191512" textLength="8.4">⠀</text><text x="226.8" y="157.0" fill="#513319" textLength="8.4">⡀</text><text x="235.2" y="157.0" fill="#191512" textLength="8.4">⠀</text><text x="243.6" y="157.0" fill="#513319" textLength="42.0">⡀⡀⡀⡀⡀</text><text x="285.6" y="157.0" fill="#825631" textLength="8.4">⣀</text><text x="294.0" y="157.0" fill="#191512" textLength="16.8">⠀⠀</text><text x="310.8" y="157.0" fill="#513319" textLength="16.8">⡀⡀</text><text x="327.6" y="157.0" fill="#191512" textLength="8.4">⠀</text><text x="336.0" y="157.0" fill="#513319" textLength="8.4">⡀</text><text x="344.4" y="157.0" fill="#191512" textLength="8.4">⠀</text><text x="352.8" y="157.0" fill="#825631" textLength="8.4">⣀</text><text x="361.2" y="157.0" fill="#513319" textLength="8.4">⡀</text><text x="369.6" y="157.0" fill="#825631" textLength="16.8">⣀⣀</text><text x="386.4" y="157.0" fill="#513319" textLength="16.8">⡀⡀</text><text x="403.2" y="157.0" fill="#191512" textLength="8.4">⠀</text><text x="411.6" y="157.0" fill="#825631" textLength="8.4">⣀</text><text x="420.0" y="157.0" fill="#513319" textLength="16.8">⡀⡀</text><text x="436.8" y="157.0" fill="#825631" textLength="16.8">⣀⣀</text><text x="453.6" y="157.0" fill="#B67D4B" textLength="8.4">⣤</text><text x="462.0" y="157.0" fill="#191512" textLength="8.4">⠀</text><text x="470.4" y="157.0" fill="#825631" textLength="8.4">⣀</text><text x="478.8" y="157.0" fill="#513319" textLength="8.4">⡀</text><text x="487.2" y="157.0" fill="#825631" textLength="8.4">⣀</text><text x="495.6" y="157.0" fill="#513319" textLength="8.4">⡀</text><text x="504.0" y="157.0" fill="#B67D4B" textLength="25.2">⣤⣤⣤</text><text x="529.2" y="157.0" fill="#513319" textLength="16.8">⡀⡀</text><text x="546.0" y="157.0" fill="#825631" textLength="16.8">⣀⣀</text><text x="663.6" y="157.0" fill="#514C49" textLength="8.4">│</text><text x="0.0" y="175.0" fill="#514C49" textLength="672.0">└──────────────────────────────────────────────────────────────────────────────┘</text><text x="0.0" y="193.0" fill="#E0985A" textLength="25.2">┌─ </text><text x="25.2" y="193.0" fill="#B2ADA9" textLength="67.2">by model</text><text x="92.4" y="193.0" fill="#514C49" textLength="126.0"> · last 90 days</text><text x="218.4" y="193.0" fill="#E0985A" textLength="453.6"> ────────────────────────────────────────────────────┐</text><text x="0.0" y="211.0" fill="#E0985A" textLength="8.4">│</text><text x="16.8" y="211.0" fill="#8A8582" textLength="151.2">model             </text><text x="184.8" y="211.0" fill="#8A8582" textLength="58.8"> tokens</text><text x="260.4" y="211.0" fill="#8A8582" textLength="84.0">      cost</text><text x="361.2" y="211.0" fill="#8A8582" textLength="58.8"> output</text><text x="436.8" y="211.0" fill="#8A8582" textLength="58.8">  cache</text><text x="663.6" y="211.0" fill="#E0985A" textLength="8.4">│</text><text x="0.0" y="229.0" fill="#E0985A" textLength="8.4">│</text><text x="16.8" y="229.0" fill="#B2ADA9" textLength="151.2">claude-opus-4     </text><text x="184.8" y="229.0" fill="#EDE6E3" textLength="58.8">  31.2M</text><text x="260.4" y="229.0" fill="#EDE6E3" textLength="84.0">    $48.21</text><text x="361.2" y="229.0" fill="#8A8582" textLength="58.8">   3.2M</text><text x="436.8" y="229.0" fill="#8A8582" textLength="58.8">    20M</text><text x="512.4" y="229.0" fill="#C4A389" textLength="100.8">⣿⣿⣿⣿⣿⣿⣿⣿⣿⣿⣿⣿</text><text x="663.6" y="229.0" fill="#E0985A" textLength="8.4">│</text><text x="0.0" y="247.0" fill="#E0985A" textLength="8.4">│</text><text x="16.8" y="247.0" fill="#B2ADA9" textLength="151.2">claude-sonnet-4   </text><text x="184.8" y="247.0" fill="#EDE6E3" textLength="58.8">   9.8M</text><text x="260.4" y="247.0" fill="#EDE6E3" textLength="84.0">     $9.04</text><text x="361.2" y="247.0" fill="#8A8582" textLength="58.8">   1.4M</text><text x="436.8" y="247.0" fill="#8A8582" textLength="58.8">   5.4M</text><text x="512.4" y="247.0" fill="#C4A389" textLength="33.6">⣿⣿⣿⣶</text><text x="663.6" y="247.0" fill="#E0985A" textLength="8.4">│</text><text x="0.0" y="265.0" fill="#E0985A" textLength="8.4">│</text><text x="16.8" y="265.0" fill="#B2ADA9" textLength="151.2">claude-haiku-4-5  </text><text x="184.8" y="265.0" fill="#EDE6E3" textLength="58.8">   1.2M</text><text x="260.4" y="265.0" fill="#EDE6E3" textLength="84.0">     $0.31</text><text x="361.2" y="265.0" fill="#8A8582" textLength="58.8">   200K</text><text x="436.8" y="265.0" fill="#8A8582" textLength="58.8">   500K</text><text x="512.4" y="265.0" fill="#C4A389" textLength="8.4">⣤</text><text x="663.6" y="265.0" fill="#E0985A" textLength="8.4">│</text><text x="0.0" y="283.0" fill="#E0985A" textLength="8.4">│</text><text x="16.8" y="283.0" fill="#B2ADA9" textLength="151.2">-                 </text><text x="184.8" y="283.0" fill="#EDE6E3" textLength="58.8">  84.2K</text><text x="260.4" y="283.0" fill="#EDE6E3" textLength="84.0">         -</text><text x="361.2" y="283.0" fill="#8A8582" textLength="58.8">    20K</text><text x="436.8" y="283.0" fill="#8A8582" textLength="58.8">  14.2K</text><text x="663.6" y="283.0" fill="#E0985A" textLength="8.4">│</text><text x="0.0" y="301.0" fill="#E0985A" textLength="672.0">└──────────────────────────────────────────────────────────────────────────────┘</text><text x="0.0" y="319.0" fill="#514C49" textLength="25.2">┌─ </text><text x="25.2" y="319.0" fill="#B2ADA9" textLength="84.0">by project</text><text x="109.2" y="319.0" fill="#514C49" textLength="562.8"> · last 90 days ──────────────────────────────────────────────────┐</text><text x="0.0" y="337.0" fill="#514C49" textLength="8.4">│</text><text x="16.8" y="337.0" fill="#8A8582" textLength="151.2">project           </text><text x="184.8" y="337.0" fill="#8A8582" textLength="58.8"> tokens</text><text x="260.4" y="337.0" fill="#8A8582" textLength="84.0">      cost</text><text x="361.2" y="337.0" fill="#8A8582" textLength="58.8"> output</text><text x="436.8" y="337.0" fill="#8A8582" textLength="58.8">  cache</text><text x="663.6" y="337.0" fill="#514C49" textLength="8.4">│</text><text x="0.0" y="355.0" fill="#514C49" textLength="8.4">│</text><text x="16.8" y="355.0" fill="#B2ADA9" textLength="151.2">tokly             </text><text x="184.8" y="355.0" fill="#EDE6E3" textLength="58.8">  28.4M</text><text x="260.4" y="355.0" fill="#EDE6E3" textLength="84.0">    $39.12</text><text x="361.2" y="355.0" fill="#8A8582" textLength="58.8">     3M</text><text x="436.8" y="355.0" fill="#8A8582" textLength="58.8">    18M</text><text x="512.4" y="355.0" fill="#C4A389" textLength="100.8">⣿⣿⣿⣿⣿⣿⣿⣿⣿⣿⣿⣿</text><text x="663.6" y="355.0" fill="#514C49" textLength="8.4">│</text><text x="0.0" y="373.0" fill="#514C49" textLength="8.4">│</text><text x="16.8" y="373.0" fill="#B2ADA9" textLength="151.2">relay             </text><text x="184.8" y="373.0" fill="#EDE6E3" textLength="58.8">  12.1M</text><text x="260.4" y="373.0" fill="#EDE6E3" textLength="84.0">    $17.05</text><text x="361.2" y="373.0" fill="#8A8582" textLength="58.8">   1.5M</text><text x="436.8" y="373.0" fill="#8A8582" textLength="58.8">   7.5M</text><text x="512.4" y="373.0" fill="#C4A389" textLength="50.4">⣿⣿⣿⣿⣿⣀</text><text x="663.6" y="373.0" fill="#514C49" textLength="8.4">│</text><text x="0.0" y="391.0" fill="#514C49" textLength="8.4">│</text><text x="16.8" y="391.0" fill="#B2ADA9" textLength="151.2">…iments/prompt-lab</text><text x="184.8" y="391.0" fill="#EDE6E3" textLength="58.8">   1.9M</text><text x="260.4" y="391.0" fill="#EDE6E3" textLength="84.0">         -</text><text x="361.2" y="391.0" fill="#8A8582" textLength="58.8">   300K</text><text x="436.8" y="391.0" fill="#8A8582" textLength="58.8">     1M</text><text x="512.4" y="391.0" fill="#C4A389" textLength="8.4">⣶</text><text x="663.6" y="391.0" fill="#514C49" textLength="8.4">│</text><text x="0.0" y="409.0" fill="#514C49" textLength="672.0">└──────────────────────────────────────────────────────────────────────────────┘</text><text x="8.4" y="427.0" fill="#67B36A" textLength="16.8">● </text><text x="25.2" y="427.0" fill="#B2ADA9" textLength="33.6">live</text><text x="58.8" y="427.0" fill="#514C49" textLength="159.6"> · updated 14:02 · </text><text x="218.4" y="427.0" fill="#E0985A" textLength="109.2">claude-opus-4</text><text x="327.6" y="427.0" fill="#514C49" textLength="25.2"> · </text><text x="352.8" y="427.0" fill="#EDE6E3" textLength="42.0">12.4K</text><text x="394.8" y="427.0" fill="#8A8582" textLength="58.8"> tokens</text><text x="453.6" y="427.0" fill="#514C49" textLength="25.2"> · </text><text x="478.8" y="427.0" fill="#EDE6E3" textLength="42.0">$0.04</text><text x="520.8" y="427.0" fill="#514C49" textLength="25.2"> · </text><text x="546.0" y="427.0" fill="#EDE6E3" textLength="33.6">3.2s</text><text x="604.8" y="427.0" fill="#8A8582" textLength="8.4">q</text><text x="613.2" y="427.0" fill="#514C49" textLength="8.4">·</text><text x="621.6" y="427.0" fill="#8A8582" textLength="8.4">t</text><text x="630.0" y="427.0" fill="#514C49" textLength="8.4">·</text><text x="638.4" y="427.0" fill="#8A8582" textLength="8.4">r</text><text x="646.8" y="427.0" fill="#514C49" textLength="8.4">·</text><text x="655.2" y="427.0" fill="#8A8582" textLength="8.4">d</text></g></svg>